<svg width="48" height="46" viewBox="0 0 48 46" fill="none" xmlns="http://www.w3.org/2000/svg">
<rect y="0.5" width="48" height="45" rx="4" fill="#F6F8F9"/>
<path d="M23.9998 13.7398C25.0558 13.7398 25.9198 14.6038 25.9198 15.6598C25.9198 16.7158 25.0558 17.5798 23.9998 17.5798C22.9438 17.5798 22.0798 16.7158 22.0798 15.6598C22.0798 14.6038 22.9438 13.7398 23.9998 13.7398ZM23.9998 23.3398C26.5918 23.3398 29.5678 24.5782 29.7598 25.2598H18.2398C18.4606 24.5686 21.4174 23.3398 23.9998 23.3398ZM23.9998 11.8198C21.8782 11.8198 20.1598 13.5382 20.1598 15.6598C20.1598 17.7814 21.8782 19.4998 23.9998 19.4998C26.1214 19.4998 27.8398 17.7814 27.8398 15.6598C27.8398 13.5382 26.1214 11.8198 23.9998 11.8198ZM23.9998 21.4198C21.4366 21.4198 16.3198 22.7062 16.3198 25.2598V27.1798H31.6798V25.2598C31.6798 22.7062 26.563 21.4198 23.9998 21.4198Z" fill="black"/>
</svg>
